<svg xmlns="http://www.w3.org/2000/svg" viewBox="0 0 1600 900" width="1600" height="900">
  <defs>
    <linearGradient id="fn-bg" x1="0%" y1="0%" x2="100%" y2="100%">
      <stop offset="0%" stop-color="#07070D"/>
      <stop offset="100%" stop-color="#0C0C1A"/>
    </linearGradient>
    <linearGradient id="fn-brand" x1="0%" y1="0%" x2="100%" y2="100%">
      <stop offset="0%" stop-color="#6366F1"/>
      <stop offset="100%" stop-color="#818CF8"/>
    </linearGradient>
    <radialGradient id="fn-glow" cx="50%" cy="50%">
      <stop offset="0%" stop-color="#6366F1" stop-opacity="0.15"/>
      <stop offset="100%" stop-color="#6366F1" stop-opacity="0"/>
    </radialGradient>
  </defs>

  <rect width="1600" height="900" fill="url(#fn-bg)"/>
  <ellipse cx="800" cy="450" rx="800" ry="600" fill="url(#fn-glow)"/>
  <line x1="0" y1="300" x2="1600" y2="300" stroke="#111124" stroke-width="1"/>
  <line x1="0" y1="600" x2="1600" y2="600" stroke="#111124" stroke-width="1"/>

  <!-- Header -->
  <text x="80" y="72" font-family="system-ui, sans-serif" font-size="18" font-weight="700" fill="#F8F8FF">BlockBind · Final Gallery</text>
  <text x="80" y="94" font-family="system-ui, sans-serif" font-size="12" fill="#6B7280">30+ screens · One visual system · Cohesive, scalable, and trust-worthy</text>

  <!-- 4 mini phones top row + 4 bottom row -->
  <!-- Top row: Home, Asset Detail, NFTs, Activity -->

  <!-- Phone mini 1: Home -->
  <rect x="80" y="120" width="160" height="320" rx="20" fill="#0F0F1A" stroke="#1E1E2E" stroke-width="1.5"/>
  <rect x="88" y="132" width="144" height="296" rx="14" fill="#0A0A12"/>
  <text x="160" y="162" font-family="system-ui, sans-serif" font-size="8" font-weight="600" fill="#F8F8FF" text-anchor="middle">Home</text>
  <rect x="96" y="172" width="128" height="70" rx="10" fill="#131320"/>
  <text x="160" y="198" font-family="system-ui, sans-serif" font-size="7" fill="#6B7280" text-anchor="middle">Total Balance</text>
  <text x="160" y="216" font-family="system-ui, sans-serif" font-size="16" font-weight="700" fill="#F8F8FF" text-anchor="middle">$24,891</text>
  <text x="160" y="232" font-family="system-ui, sans-serif" font-size="8" fill="#10B981" text-anchor="middle">˛ +5.08%</text>
  <rect x="96" y="252" width="128" height="36" rx="8" fill="#131320"/>
  <text x="116" y="275" font-family="system-ui, sans-serif" font-size="16" fill="#6366F1" text-anchor="middle">‘</text>
  <text x="150" y="275" font-family="system-ui, sans-serif" font-size="16" fill="#10B981" text-anchor="middle">“</text>
  <text x="186" y="275" font-family="system-ui, sans-serif" font-size="13" fill="#F59E0B" text-anchor="middle">$</text>
  <text x="214" y="275" font-family="system-ui, sans-serif" font-size="12" fill="#818CF8" text-anchor="middle">Ä</text>
  <rect x="96" y="298" width="128" height="30" rx="6" fill="#131320"/>
  <circle cx="116" cy="313" r="8" fill="#2A1A00"/>
  <text x="116" y="317" font-family="system-ui, sans-serif" font-size="6" fill="#F7931A" text-anchor="middle">ż</text>
  <text x="130" y="311" font-family="system-ui, sans-serif" font-size="8" fill="#F8F8FF">Bitcoin</text>
  <text x="216" y="311" font-family="system-ui, sans-serif" font-size="8" fill="#10B981" text-anchor="end">+4.2%</text>
  <rect x="96" y="336" width="128" height="30" rx="6" fill="#131320"/>
  <circle cx="116" cy="351" r="8" fill="#0D1426"/>
  <text x="116" y="355" font-family="system-ui, sans-serif" font-size="6" fill="#627EEA" text-anchor="middle">ž</text>
  <text x="130" y="349" font-family="system-ui, sans-serif" font-size="8" fill="#F8F8FF">Ethereum</text>
  <text x="216" y="349" font-family="system-ui, sans-serif" font-size="8" fill="#EF4444" text-anchor="end">-1.8%</text>
  <text x="160" y="396" font-family="system-ui, sans-serif" font-size="8" fill="#4B5563" text-anchor="middle">Home</text>

  <!-- Phone mini 2: Asset Detail (price chart) -->
  <rect x="280" y="120" width="160" height="320" rx="20" fill="#0F0F1A" stroke="#1E1E2E" stroke-width="1.5"/>
  <rect x="288" y="132" width="144" height="296" rx="14" fill="#0A0A12"/>
  <text x="360" y="162" font-family="system-ui, sans-serif" font-size="8" font-weight="600" fill="#F8F8FF" text-anchor="middle">Asset Detail</text>
  <circle cx="360" cy="190" r="16" fill="#2A1A00"/>
  <text x="360" y="196" font-family="system-ui, sans-serif" font-size="13" font-weight="700" fill="#F7931A" text-anchor="middle">ż</text>
  <text x="360" y="224" font-family="system-ui, sans-serif" font-size="14" font-weight="700" fill="#F8F8FF" text-anchor="middle">$60,310</text>
  <text x="360" y="240" font-family="system-ui, sans-serif" font-size="9" fill="#10B981" text-anchor="middle">˛ +4.2% (24h)</text>
  <!-- Simplified chart line -->
  <polyline points="296,300 316,286 336,292 356,270 376,278 396,262 416,268 424,256" fill="none" stroke="#10B981" stroke-width="2" stroke-linecap="round"/>
  <rect x="296" y="256" width="128" height="60" rx="0" fill="url(#fn-brand)" opacity="0.08"/>
  <text x="296" y="340" font-family="system-ui, sans-serif" font-size="7" fill="#4B5563">24H</text>
  <text x="316" y="340" font-family="system-ui, sans-serif" font-size="7" fill="#6B7280">1W</text>
  <text x="336" y="340" font-family="system-ui, sans-serif" font-size="7" fill="#6B7280">1M</text>
  <text x="356" y="340" font-family="system-ui, sans-serif" font-size="7" fill="#6B7280">1Y</text>
  <text x="360" y="396" font-family="system-ui, sans-serif" font-size="8" fill="#4B5563" text-anchor="middle">Asset Detail</text>

  <!-- Phone mini 3: NFTs grid -->
  <rect x="480" y="120" width="160" height="320" rx="20" fill="#0F0F1A" stroke="#1E1E2E" stroke-width="1.5"/>
  <rect x="488" y="132" width="144" height="296" rx="14" fill="#0A0A12"/>
  <text x="560" y="162" font-family="system-ui, sans-serif" font-size="8" font-weight="600" fill="#F8F8FF" text-anchor="middle">Collectibles</text>
  <!-- NFT grid 2x2 -->
  <rect x="494" y="174" width="63" height="63" rx="8" fill="#1A1A2E"/>
  <text x="525" y="211" font-family="system-ui, sans-serif" font-size="22" fill="#9945FF" text-anchor="middle">Č</text>
  <rect x="569" y="174" width="63" height="63" rx="8" fill="#1A1200"/>
  <text x="600" y="211" font-family="system-ui, sans-serif" font-size="22" fill="#F59E0B" text-anchor="middle">!</text>
  <rect x="494" y="249" width="63" height="63" rx="8" fill="#0A1F12"/>
  <text x="525" y="286" font-family="system-ui, sans-serif" font-size="22" fill="#10B981" text-anchor="middle">É</text>
  <rect x="569" y="249" width="63" height="63" rx="8" fill="#0D1426"/>
  <text x="600" y="286" font-family="system-ui, sans-serif" font-size="22" fill="#627EEA" text-anchor="middle">K</text>
  <rect x="494" y="322" width="138" height="22" rx="6" fill="#131320"/>
  <text x="563" y="338" font-family="system-ui, sans-serif" font-size="8" fill="#6B7280" text-anchor="middle">4 of 12 collectibles</text>
  <text x="560" y="396" font-family="system-ui, sans-serif" font-size="8" fill="#4B5563" text-anchor="middle">Collectibles / NFTs</text>

  <!-- Phone mini 4: Activity -->
  <rect x="680" y="120" width="160" height="320" rx="20" fill="#0F0F1A" stroke="#1E1E2E" stroke-width="1.5"/>
  <rect x="688" y="132" width="144" height="296" rx="14" fill="#0A0A12"/>
  <text x="760" y="162" font-family="system-ui, sans-serif" font-size="8" font-weight="600" fill="#F8F8FF" text-anchor="middle">Activity</text>
  <!-- Transaction items -->
  <rect x="694" y="174" width="128" height="36" rx="7" fill="#131320"/>
  <circle cx="712" cy="192" r="9" fill="#0A1F12"/>
  <text x="712" y="196" font-family="system-ui, sans-serif" font-size="8" fill="#10B981" text-anchor="middle">“</text>
  <text x="726" y="188" font-family="system-ui, sans-serif" font-size="8" fill="#F8F8FF">Received ETH</text>
  <text x="726" y="200" font-family="system-ui, sans-serif" font-size="7" fill="#4B5563">2h ago</text>
  <text x="814" y="192" font-family="system-ui, sans-serif" font-size="9" fill="#10B981" text-anchor="end">+1.2 ETH</text>
  <rect x="694" y="218" width="128" height="36" rx="7" fill="#131320"/>
  <circle cx="712" cy="236" r="9" fill="#1A0A0A"/>
  <text x="712" y="240" font-family="system-ui, sans-serif" font-size="8" fill="#EF4444" text-anchor="middle">‘</text>
  <text x="726" y="232" font-family="system-ui, sans-serif" font-size="8" fill="#F8F8FF">Sent BTC</text>
  <text x="726" y="244" font-family="system-ui, sans-serif" font-size="7" fill="#4B5563">5h ago</text>
  <text x="814" y="236" font-family="system-ui, sans-serif" font-size="9" fill="#F8F8FF" text-anchor="end">-0.05 BTC</text>
  <rect x="694" y="262" width="128" height="36" rx="7" fill="#131320"/>
  <circle cx="712" cy="280" r="9" fill="#1A1A2E"/>
  <text x="712" y="284" font-family="system-ui, sans-serif" font-size="8" fill="#818CF8" text-anchor="middle">Ä</text>
  <text x="726" y="276" font-family="system-ui, sans-serif" font-size="8" fill="#F8F8FF">Swapped</text>
  <text x="726" y="288" font-family="system-ui, sans-serif" font-size="7" fill="#4B5563">1d ago</text>
  <text x="814" y="280" font-family="system-ui, sans-serif" font-size="9" fill="#818CF8" text-anchor="end">ETH’SOL</text>
  <rect x="694" y="306" width="128" height="36" rx="7" fill="#131320"/>
  <circle cx="712" cy="324" r="9" fill="#0A1F12"/>
  <text x="712" y="328" font-family="system-ui, sans-serif" font-size="8" fill="#10B981" text-anchor="middle">“</text>
  <text x="726" y="320" font-family="system-ui, sans-serif" font-size="8" fill="#F8F8FF">Received SOL</text>
  <text x="726" y="332" font-family="system-ui, sans-serif" font-size="7" fill="#4B5563">2d ago</text>
  <text x="814" y="324" font-family="system-ui, sans-serif" font-size="9" fill="#10B981" text-anchor="end">+50 SOL</text>
  <text x="760" y="396" font-family="system-ui, sans-serif" font-size="8" fill="#4B5563" text-anchor="middle">Activity</text>

  <!-- Phone mini 5: Settings -->
  <rect x="880" y="120" width="160" height="320" rx="20" fill="#0F0F1A" stroke="#1E1E2E" stroke-width="1.5"/>
  <rect x="888" y="132" width="144" height="296" rx="14" fill="#0A0A12"/>
  <text x="960" y="162" font-family="system-ui, sans-serif" font-size="8" font-weight="600" fill="#F8F8FF" text-anchor="middle">Settings</text>
  <rect x="894" y="174" width="128" height="34" rx="7" fill="#131320"/>
  <text x="910" y="196" font-family="system-ui, sans-serif" font-size="9" fill="#F8F8FF">Wallets</text>
  <text x="1014" y="196" font-family="system-ui, sans-serif" font-size="11" fill="#4B5563" text-anchor="end">:</text>
  <rect x="894" y="216" width="128" height="34" rx="7" fill="#131320"/>
  <text x="910" y="238" font-family="system-ui, sans-serif" font-size="9" fill="#F8F8FF">Security</text>
  <text x="1014" y="238" font-family="system-ui, sans-serif" font-size="11" fill="#4B5563" text-anchor="end">:</text>
  <rect x="894" y="258" width="128" height="34" rx="7" fill="#131320"/>
  <text x="910" y="280" font-family="system-ui, sans-serif" font-size="9" fill="#F8F8FF">Connected Apps</text>
  <text x="1014" y="280" font-family="system-ui, sans-serif" font-size="11" fill="#4B5563" text-anchor="end">:</text>
  <rect x="894" y="300" width="128" height="34" rx="7" fill="#131320"/>
  <text x="910" y="322" font-family="system-ui, sans-serif" font-size="9" fill="#F8F8FF">Networks</text>
  <text x="1014" y="322" font-family="system-ui, sans-serif" font-size="11" fill="#4B5563" text-anchor="end">:</text>
  <rect x="894" y="342" width="128" height="26" rx="13" fill="transparent" stroke="#EF4444" stroke-width="1"/>
  <text x="958" y="359" font-family="system-ui, sans-serif" font-size="9" fill="#EF4444" text-anchor="middle">Disconnect Wallet</text>
  <text x="960" y="396" font-family="system-ui, sans-serif" font-size="8" fill="#4B5563" text-anchor="middle">Settings</text>

  <!-- Phone mini 6: Send (step 1) -->
  <rect x="1080" y="120" width="160" height="320" rx="20" fill="#0F0F1A" stroke="#1E1E2E" stroke-width="1.5"/>
  <rect x="1088" y="132" width="144" height="296" rx="14" fill="#0A0A12"/>
  <text x="1160" y="162" font-family="system-ui, sans-serif" font-size="8" font-weight="600" fill="#F8F8FF" text-anchor="middle">Send</text>
  <rect x="1094" y="174" width="128" height="40" rx="8" fill="#131320" stroke="#6366F1" stroke-width="1"/>
  <text x="1158" y="199" font-family="system-ui, monospace" font-size="8" fill="#818CF8" text-anchor="middle">0x71C7...A26</text>
  <text x="1094" y="232" font-family="system-ui, sans-serif" font-size="7" fill="#6B7280">Amount</text>
  <rect x="1094" y="240" width="128" height="48" rx="8" fill="#131320"/>
  <text x="1158" y="268" font-family="system-ui, sans-serif" font-size="18" font-weight="700" fill="#F8F8FF" text-anchor="middle">0.25 ETH</text>
  <text x="1158" y="282" font-family="system-ui, sans-serif" font-size="8" fill="#6B7280" text-anchor="middle">H $476.25</text>
  <rect x="1094" y="302" width="128" height="34" rx="8" fill="#131320"/>
  <text x="1110" y="324" font-family="system-ui, sans-serif" font-size="9" fill="#F8F8FF">Ethereum</text>
  <text x="1214" y="324" font-family="system-ui, sans-serif" font-size="9" fill="#4B5563" text-anchor="end">$3.20</text>
  <rect x="1094" y="346" width="128" height="26" rx="13" fill="url(#fn-brand)"/>
  <text x="1158" y="364" font-family="system-ui, sans-serif" font-size="9" font-weight="600" fill="#F8F8FF" text-anchor="middle">Review ’</text>
  <text x="1160" y="396" font-family="system-ui, sans-serif" font-size="8" fill="#4B5563" text-anchor="middle">Send · Step 1</text>

  <!-- Phone mini 7: Swap success -->
  <rect x="1280" y="120" width="160" height="320" rx="20" fill="#0F0F1A" stroke="#10B981" stroke-width="1.5"/>
  <rect x="1288" y="132" width="144" height="296" rx="14" fill="#0A0A12"/>
  <text x="1360" y="162" font-family="system-ui, sans-serif" font-size="8" font-weight="600" fill="#F8F8FF" text-anchor="middle">Swap </text>
  <circle cx="1360" cy="240" r="40" fill="#0A1F12" stroke="#10B981" stroke-width="1.5"/>
  <text x="1360" y="250" font-family="system-ui, sans-serif" font-size="28" fill="#10B981" text-anchor="middle"></text>
  <text x="1360" y="302" font-family="system-ui, sans-serif" font-size="12" font-weight="700" fill="#F8F8FF" text-anchor="middle">Swap complete!</text>
  <text x="1360" y="322" font-family="system-ui, sans-serif" font-size="9" fill="#10B981" text-anchor="middle">1.742 ETH received</text>
  <rect x="1294" y="340" width="132" height="26" rx="13" fill="url(#fn-brand)"/>
  <text x="1360" y="358" font-family="system-ui, sans-serif" font-size="9" font-weight="600" fill="#F8F8FF" text-anchor="middle">Back to Home</text>
  <text x="1360" y="396" font-family="system-ui, sans-serif" font-size="8" fill="#4B5563" text-anchor="middle">Success state</text>

  <!-- Phone mini 8: Onboarding (welcome) -->
  <rect x="1480" y="120" width="80" height="320" rx="12" fill="#0F0F1A" stroke="#1E1E2E" stroke-width="1.5" opacity="0.6"/>
  <rect x="1486" y="130" width="68" height="300" rx="8" fill="#0A0A12" opacity="0.6"/>
  <text x="1520" y="278" font-family="system-ui, sans-serif" font-size="20" fill="#6366F1" text-anchor="middle" opacity="0.7">!</text>
  <text x="1520" y="310" font-family="system-ui, sans-serif" font-size="8" fill="#818CF8" text-anchor="middle" opacity="0.7">Block</text>
  <text x="1520" y="322" font-family="system-ui, sans-serif" font-size="8" fill="#818CF8" text-anchor="middle" opacity="0.7">Bind</text>
  <text x="1520" y="396" font-family="system-ui, sans-serif" font-size="8" fill="#4B5563" text-anchor="middle" opacity="0.6">+more</text>

  <!-- Summary row at bottom -->
  <rect x="80" y="680" width="1440" height="80" rx="14" fill="#0F0F1A" stroke="#1E1E2E" stroke-width="1"/>
  <text x="800" y="714" font-family="system-ui, sans-serif" font-size="18" font-weight="700" fill="#F8F8FF" text-anchor="middle">30+ screens · One visual system</text>
  <text x="800" y="740" font-family="system-ui, sans-serif" font-size="13" fill="#6B7280" text-anchor="middle">Consistent spacing · Functional color · Kanit + Roboto · Component library · 4px grid</text>

  <!-- Label -->
  <rect x="80" y="820" width="5" height="44" rx="2.5" fill="url(#fn-brand)"/>
  <text x="98" y="844" font-family="system-ui, sans-serif" font-size="13" font-weight="600" fill="#F8F8FF">BlockBind · Final Product Gallery</text>
  <text x="98" y="862" font-family="system-ui, sans-serif" font-size="11" fill="#4B5563">Home · Asset Detail · NFTs · Activity · Settings · Send · Swap · Onboarding</text>
</svg>
