<svg xmlns="http://www.w3.org/2000/svg" viewBox="0 0 1600 900" width="1600" height="900">
  <defs>
    <linearGradient id="ob-bg" x1="0%" y1="0%" x2="100%" y2="100%">
      <stop offset="0%" stop-color="#07070D"/>
      <stop offset="100%" stop-color="#0C0C1A"/>
    </linearGradient>
    <linearGradient id="ob-brand" x1="0%" y1="0%" x2="100%" y2="100%">
      <stop offset="0%" stop-color="#6366F1"/>
      <stop offset="100%" stop-color="#818CF8"/>
    </linearGradient>
  </defs>

  <rect width="1600" height="900" fill="url(#ob-bg)"/>
  <line x1="0" y1="300" x2="1600" y2="300" stroke="#111124" stroke-width="1"/>
  <line x1="0" y1="600" x2="1600" y2="600" stroke="#111124" stroke-width="1"/>

  <!-- Section header -->
  <text x="80" y="72" font-family="system-ui, sans-serif" font-size="16" font-weight="700" fill="#F8F8FF">Onboarding</text>
  <text x="80" y="94" font-family="system-ui, sans-serif" font-size="12" fill="#6B7280">5 screens À Value-first À Illustrated tone À No technical requirements to start</text>

  <!-- Onboarding screen data -->
  <!-- Screen 1: Welcome / Hero -->
  <rect x="60" y="116" width="260" height="560" rx="34" fill="#0F0F1A" stroke="#1E1E2E" stroke-width="2"/>
  <rect x="70" y="130" width="240" height="532" rx="24" fill="#0A0A12"/>
  <rect x="136" y="138" width="88" height="20" rx="10" fill="#0F0F1A"/>
  <!-- Illustration area -->
  <circle cx="190" cy="290" r="90" fill="#131320"/>
  <text x="190" y="268" font-family="system-ui, sans-serif" font-size="52" fill="#6366F1" text-anchor="middle">!</text>
  <circle cx="240" cy="320" r="20" fill="#0F0F1A"/>
  <text x="240" y="326" font-family="system-ui, sans-serif" font-size="14" fill="#F7931A" text-anchor="middle">┐</text>
  <circle cx="145" cy="330" r="18" fill="#0F0F1A"/>
  <text x="145" y="336" font-family="system-ui, sans-serif" font-size="13" fill="#627EEA" text-anchor="middle">×</text>
  <circle cx="225" cy="248" r="16" fill="#0F0F1A"/>
  <text x="225" y="254" font-family="system-ui, sans-serif" font-size="12" fill="#9945FF" text-anchor="middle">╬</text>
  <!-- Copy -->
  <text x="190" y="416" font-family="system-ui, sans-serif" font-size="20" font-weight="700" fill="#F8F8FF" text-anchor="middle">Welcome to</text>
  <text x="190" y="440" font-family="system-ui, sans-serif" font-size="20" font-weight="700" fill="#6366F1" text-anchor="middle">BlockBind</text>
  <text x="190" y="472" font-family="system-ui, sans-serif" font-size="11" fill="#6B7280" text-anchor="middle">Manage all your crypto</text>
  <text x="190" y="488" font-family="system-ui, sans-serif" font-size="11" fill="#6B7280" text-anchor="middle">from one place</text>
  <!-- Progress dots -->
  <circle cx="174" cy="564" r="5" fill="#6366F1"/>
  <circle cx="190" cy="564" r="3" fill="#1E1E2E"/>
  <circle cx="204" cy="564" r="3" fill="#1E1E2E"/>
  <circle cx="217" cy="564" r="3" fill="#1E1E2E"/>
  <circle cx="230" cy="564" r="3" fill="#1E1E2E"/>
  <!-- Screen label -->
  <text x="190" y="618" font-family="system-ui, sans-serif" font-size="9" fill="#4B5563" text-anchor="middle">1 / 5 À Welcome</text>

  <!-- Screen 2: Multi-chain -->
  <rect x="370" y="116" width="260" height="560" rx="34" fill="#0F0F1A" stroke="#1E1E2E" stroke-width="2"/>
  <rect x="380" y="130" width="240" height="532" rx="24" fill="#0A0A12"/>
  <rect x="446" y="138" width="88" height="20" rx="10" fill="#0F0F1A"/>
  <!-- Chain illustration -->
  <text x="500" y="290" font-family="system-ui, sans-serif" font-size="56" fill="#6366F1" text-anchor="middle">=</text>
  <rect x="400" y="322" width="200" height="32" rx="8" fill="#131320" stroke="#1E1E2E" stroke-width="1"/>
  <circle cx="426" cy="338" r="10" fill="#2A1A00"/>
  <text x="426" y="342" font-family="system-ui, sans-serif" font-size="8" fill="#F7931A" text-anchor="middle">┐</text>
  <circle cx="460" cy="338" r="10" fill="#0D1426"/>
  <text x="460" y="342" font-family="system-ui, sans-serif" font-size="8" fill="#627EEA" text-anchor="middle">×</text>
  <circle cx="494" cy="338" r="10" fill="#1A0D26"/>
  <text x="494" y="342" font-family="system-ui, sans-serif" font-size="8" fill="#9945FF" text-anchor="middle">╬</text>
  <text x="534" y="342" font-family="system-ui, sans-serif" font-size="10" fill="#4B5563">+ more</text>
  <!-- Copy -->
  <text x="500" y="400" font-family="system-ui, sans-serif" font-size="17" font-weight="700" fill="#F8F8FF" text-anchor="middle">Every Chain,</text>
  <text x="500" y="424" font-family="system-ui, sans-serif" font-size="17" font-weight="700" fill="#818CF8" text-anchor="middle">One Wallet</text>
  <text x="500" y="456" font-family="system-ui, sans-serif" font-size="11" fill="#6B7280" text-anchor="middle">BTC, ETH, SOL and more.</text>
  <text x="500" y="472" font-family="system-ui, sans-serif" font-size="11" fill="#6B7280" text-anchor="middle">Unified across all chains.</text>
  <circle cx="480" cy="564" r="3" fill="#1E1E2E"/>
  <circle cx="494" cy="564" r="5" fill="#6366F1"/>
  <circle cx="508" cy="564" r="3" fill="#1E1E2E"/>
  <circle cx="521" cy="564" r="3" fill="#1E1E2E"/>
  <circle cx="534" cy="564" r="3" fill="#1E1E2E"/>
  <text x="500" y="618" font-family="system-ui, sans-serif" font-size="9" fill="#4B5563" text-anchor="middle">2 / 5 À Multi-chain</text>

  <!-- Screen 3: Security (Ledger) -->
  <rect x="680" y="116" width="260" height="560" rx="34" fill="#0F0F1A" stroke="#6366F1" stroke-width="2"/>
  <rect x="690" y="130" width="240" height="532" rx="24" fill="#0A0A12"/>
  <rect x="756" y="138" width="88" height="20" rx="10" fill="#0F0F1A"/>
  <!-- Shield illustration -->
  <text x="810" y="290" font-family="system-ui, sans-serif" font-size="56" fill="#10B981" text-anchor="middle">=ß</text>
  <!-- Copy -->
  <text x="810" y="360" font-family="system-ui, sans-serif" font-size="17" font-weight="700" fill="#F8F8FF" text-anchor="middle">Security First</text>
  <text x="810" y="396" font-family="system-ui, sans-serif" font-size="11" fill="#6B7280" text-anchor="middle">Self-custody with Ledger</text>
  <text x="810" y="412" font-family="system-ui, sans-serif" font-size="11" fill="#6B7280" text-anchor="middle">hardware wallet support.</text>
  <text x="810" y="440" font-family="system-ui, sans-serif" font-size="11" fill="#6B7280" text-anchor="middle">Your keys, your crypto.</text>
  <!-- Feature list -->
  <text x="710" y="480" font-family="system-ui, sans-serif" font-size="10" fill="#10B981">  Biometric authentication</text>
  <text x="710" y="498" font-family="system-ui, sans-serif" font-size="10" fill="#10B981">  Ledger hardware support</text>
  <text x="710" y="516" font-family="system-ui, sans-serif" font-size="10" fill="#10B981">  Swipe-to-confirm actions</text>
  <circle cx="790" cy="564" r="3" fill="#1E1E2E"/>
  <circle cx="804" cy="564" r="3" fill="#1E1E2E"/>
  <circle cx="818" cy="564" r="5" fill="#6366F1"/>
  <circle cx="831" cy="564" r="3" fill="#1E1E2E"/>
  <circle cx="844" cy="564" r="3" fill="#1E1E2E"/>
  <text x="810" y="618" font-family="system-ui, sans-serif" font-size="9" fill="#4B5563" text-anchor="middle">3 / 5 À Security</text>

  <!-- Screen 4: Rewards -->
  <rect x="990" y="116" width="260" height="560" rx="34" fill="#0F0F1A" stroke="#1E1E2E" stroke-width="2"/>
  <rect x="1000" y="130" width="240" height="532" rx="24" fill="#0A0A12"/>
  <rect x="1066" y="138" width="88" height="20" rx="10" fill="#0F0F1A"/>
  <!-- Reward illustration -->
  <text x="1120" y="290" font-family="system-ui, sans-serif" font-size="56" fill="#F59E0B" text-anchor="middle"></text>
  <rect x="1020" y="308" width="200" height="32" rx="16" fill="#1A1200"/>
  <text x="1120" y="330" font-family="system-ui, sans-serif" font-size="11" fill="#F59E0B" text-anchor="middle">+250 BIND tokens earned</text>
  <!-- Copy -->
  <text x="1120" y="374" font-family="system-ui, sans-serif" font-size="17" font-weight="700" fill="#F8F8FF" text-anchor="middle">Earn as You Go</text>
  <text x="1120" y="410" font-family="system-ui, sans-serif" font-size="11" fill="#6B7280" text-anchor="middle">Get BIND tokens for every</text>
  <text x="1120" y="426" font-family="system-ui, sans-serif" font-size="11" fill="#6B7280" text-anchor="middle">transaction you make.</text>
  <text x="1120" y="454" font-family="system-ui, sans-serif" font-size="11" fill="#6B7280" text-anchor="middle">Use them for fee discounts</text>
  <text x="1120" y="470" font-family="system-ui, sans-serif" font-size="11" fill="#6B7280" text-anchor="middle">and exclusive features.</text>
  <circle cx="1100" cy="564" r="3" fill="#1E1E2E"/>
  <circle cx="1114" cy="564" r="3" fill="#1E1E2E"/>
  <circle cx="1128" cy="564" r="3" fill="#1E1E2E"/>
  <circle cx="1141" cy="564" r="5" fill="#6366F1"/>
  <circle cx="1154" cy="564" r="3" fill="#1E1E2E"/>
  <text x="1120" y="618" font-family="system-ui, sans-serif" font-size="9" fill="#4B5563" text-anchor="middle">4 / 5 À Rewards</text>

  <!-- Screen 5: Get started CTA -->
  <rect x="1300" y="116" width="260" height="560" rx="34" fill="#0F0F1A" stroke="#1E1E2E" stroke-width="2"/>
  <rect x="1310" y="130" width="240" height="532" rx="24" fill="#0A0A12"/>
  <rect x="1376" y="138" width="88" height="20" rx="10" fill="#0F0F1A"/>
  <!-- Illustration -->
  <text x="1430" y="280" font-family="system-ui, sans-serif" font-size="56" fill="#6366F1" text-anchor="middle">=Ç</text>
  <text x="1430" y="356" font-family="system-ui, sans-serif" font-size="18" font-weight="700" fill="#F8F8FF" text-anchor="middle">Ready to start?</text>
  <text x="1430" y="392" font-family="system-ui, sans-serif" font-size="11" fill="#6B7280" text-anchor="middle">Create a new wallet or</text>
  <text x="1430" y="408" font-family="system-ui, sans-serif" font-size="11" fill="#6B7280" text-anchor="middle">import your existing one.</text>
  <!-- CTAs -->
  <rect x="1322" y="438" width="216" height="44" rx="22" fill="url(#ob-brand)"/>
  <text x="1430" y="466" font-family="system-ui, sans-serif" font-size="13" font-weight="600" fill="#F8F8FF" text-anchor="middle">Create new wallet</text>
  <rect x="1322" y="494" width="216" height="44" rx="22" fill="transparent" stroke="#6366F1" stroke-width="1.5"/>
  <text x="1430" y="522" font-family="system-ui, sans-serif" font-size="13" fill="#818CF8" text-anchor="middle">Import existing wallet</text>
  <circle cx="1410" cy="564" r="3" fill="#1E1E2E"/>
  <circle cx="1424" cy="564" r="3" fill="#1E1E2E"/>
  <circle cx="1438" cy="564" r="3" fill="#1E1E2E"/>
  <circle cx="1451" cy="564" r="3" fill="#1E1E2E"/>
  <circle cx="1464" cy="564" r="5" fill="#6366F1"/>
  <text x="1430" y="618" font-family="system-ui, sans-serif" font-size="9" fill="#4B5563" text-anchor="middle">5 / 5 À Get started</text>

  <!-- Label -->
  <rect x="80" y="820" width="5" height="44" rx="2.5" fill="url(#ob-brand)"/>
  <text x="98" y="844" font-family="system-ui, sans-serif" font-size="13" font-weight="600" fill="#F8F8FF">BlockBind À Onboarding Sequence</text>
  <text x="98" y="862" font-family="system-ui, sans-serif" font-size="11" fill="#4B5563">Welcome À Multi-chain À Security À Rewards À Get started  friendly illustrated tone, no technical requirements</text>
</svg>
